# xmcd
#
# Track frame offsets:
#	150
#	17154
#	37529
#	54044
#	102048
#	136860
#	155831
#	190404
#	206395
#	234942
#	261551
#	289426
#
# Disc length: 4375 seconds
#
# Revision: 3
# Processed by: cddbd v1.5.2PL0 Copyright (c) Steve Scherf et al.
# Submitted via: audiograbber 1.83.01
#
DISCID=9e11150c
DTITLE=—борник - Time Blues  vol.23
DYEAR=2008
DGENRE=Blues
TTITLE0=The Nimmo Brothers - Moving on
TTITLE1=Jan Parker - Wisfits Fools
TTITLE2=Miller Anderson - Sending Me Angels
TTITLE3=Robin Trower - I want to take you with me
TTITLE4=B.B. and Blues Shacks - Halsted St Blues
TTITLE5=Black Cat Bone - Little World
TTITLE6=Blue Jeans - Five Long Years
TTITLE7=Blues Traveler - Bullshitters Lament
TTITLE8=Nuno Mindelis - Danas Song
TTITLE9=Nighthawk - Running On The Highway Now
TTITLE10=Mike Dugan - Blue Eternity
TTITLE11=Chris Beard - Somebody Sleeping
EXTD=YEAR: 2008
EXTT0=
EXTT1=
EXTT2=
EXTT3=
EXTT4=
EXTT5=
EXTT6=
EXTT7=
EXTT8=
EXTT9=
EXTT10=
EXTT11=
PLAYORDER=
